<svg width="4052pt" height="786pt"
 viewBox="0.00 0.00 4051.50 786.00" xmlns="http://www.w3.org/2000/svg" xmlns:xlink="http://www.w3.org/1999/xlink">
<g id="graph0" class="graph" transform="scale(1 1) rotate(0) translate(4 782)">
<title>Perl</title>
<polygon fill="#ffffff" stroke="transparent" points="-4,4 -4,-782 4047.5,-782 4047.5,4 -4,4"/>
<!-- study_personnel -->
<g id="node1" class="node">
<title>study_personnel</title>
<path fill="none" stroke="#000000" d="M12,-593.5C12,-593.5 340,-593.5 340,-593.5 346,-593.5 352,-599.5 352,-605.5 352,-605.5 352,-719.5 352,-719.5 352,-725.5 346,-731.5 340,-731.5 340,-731.5 12,-731.5 12,-731.5 6,-731.5 0,-725.5 0,-719.5 0,-719.5 0,-605.5 0,-605.5 0,-599.5 6,-593.5 12,-593.5"/>
<text text-anchor="middle" x="67" y="-658.8" font-family="Times,serif" font-size="14.00" fill="#000000">study_personnel</text>
<polyline fill="none" stroke="#000000" points="134,-593.5 134,-731.5 "/>
<text text-anchor="middle" x="144.5" y="-658.8" font-family="Times,serif" font-size="14.00" fill="#000000"> </text>
<polyline fill="none" stroke="#000000" points="155,-593.5 155,-731.5 "/>
<text text-anchor="middle" x="243" y="-716.3" font-family="Times,serif" font-size="14.00" fill="#000000">person_email_address</text>
<polyline fill="none" stroke="#000000" points="155,-708.5 331,-708.5 "/>
<text text-anchor="middle" x="243" y="-693.3" font-family="Times,serif" font-size="14.00" fill="#000000">person_first_name</text>
<polyline fill="none" stroke="#000000" points="155,-685.5 331,-685.5 "/>
<text text-anchor="middle" x="243" y="-670.3" font-family="Times,serif" font-size="14.00" fill="#000000">person_last_name</text>
<polyline fill="none" stroke="#000000" points="155,-662.5 331,-662.5 "/>
<text text-anchor="middle" x="243" y="-647.3" font-family="Times,serif" font-size="14.00" fill="#000000">person_middle_name</text>
<polyline fill="none" stroke="#000000" points="155,-639.5 331,-639.5 "/>
<text text-anchor="middle" x="243" y="-624.3" font-family="Times,serif" font-size="14.00" fill="#000000">person_orcid_id</text>
<polyline fill="none" stroke="#000000" points="155,-616.5 331,-616.5 "/>
<text text-anchor="middle" x="243" y="-601.3" font-family="Times,serif" font-size="14.00" fill="#000000">person_role</text>
<polyline fill="none" stroke="#000000" points="331,-593.5 331,-731.5 "/>
<text text-anchor="middle" x="341.5" y="-658.8" font-family="Times,serif" font-size="14.00" fill="#000000"> </text>
</g>
<!-- study -->
<g id="node8" class="node">
<title>study</title>
<path fill="none" stroke="#000000" d="M1963,-196.5C1963,-196.5 2225,-196.5 2225,-196.5 2231,-196.5 2237,-202.5 2237,-208.5 2237,-208.5 2237,-483.5 2237,-483.5 2237,-489.5 2231,-495.5 2225,-495.5 2225,-495.5 1963,-495.5 1963,-495.5 1957,-495.5 1951,-489.5 1951,-483.5 1951,-483.5 1951,-208.5 1951,-208.5 1951,-202.5 1957,-196.5 1963,-196.5"/>
<text text-anchor="middle" x="1979" y="-342.3" font-family="Times,serif" font-size="14.00" fill="#000000">study</text>
<polyline fill="none" stroke="#000000" points="2007,-196.5 2007,-495.5 "/>
<text text-anchor="middle" x="2017.5" y="-342.3" font-family="Times,serif" font-size="14.00" fill="#000000"> </text>
<polyline fill="none" stroke="#000000" points="2028,-196.5 2028,-495.5 "/>
<text text-anchor="middle" x="2122" y="-480.3" font-family="Times,serif" font-size="14.00" fill="#000000">biospecimen_collection</text>
<polyline fill="none" stroke="#000000" points="2028,-472.5 2216,-472.5 "/>
<text text-anchor="middle" x="2122" y="-457.3" font-family="Times,serif" font-size="14.00" fill="#000000">dbgap_accession_id</text>
<polyline fill="none" stroke="#000000" points="2028,-449.5 2216,-449.5 "/>
<text text-anchor="middle" x="2122" y="-434.3" font-family="Times,serif" font-size="14.00" fill="#000000">number_of_participants</text>
<polyline fill="none" stroke="#000000" points="2028,-426.5 2216,-426.5 "/>
<text text-anchor="middle" x="2122" y="-411.3" font-family="Times,serif" font-size="14.00" fill="#000000">study_beginning_year</text>
<polyline fill="none" stroke="#000000" points="2028,-403.5 2216,-403.5 "/>
<text text-anchor="middle" x="2122" y="-388.3" font-family="Times,serif" font-size="14.00" fill="#000000">study_description</text>
<polyline fill="none" stroke="#000000" points="2028,-380.5 2216,-380.5 "/>
<text text-anchor="middle" x="2122" y="-365.3" font-family="Times,serif" font-size="14.00" fill="#000000">study_design</text>
<polyline fill="none" stroke="#000000" points="2028,-357.5 2216,-357.5 "/>
<text text-anchor="middle" x="2122" y="-342.3" font-family="Times,serif" font-size="14.00" fill="#000000">study_ending_year</text>
<polyline fill="none" stroke="#000000" points="2028,-334.5 2216,-334.5 "/>
<text text-anchor="middle" x="2122" y="-319.3" font-family="Times,serif" font-size="14.00" fill="#000000">study_id</text>
<polyline fill="none" stroke="#000000" points="2028,-311.5 2216,-311.5 "/>
<text text-anchor="middle" x="2122" y="-296.3" font-family="Times,serif" font-size="14.00" fill="#000000">study_name</text>
<polyline fill="none" stroke="#000000" points="2028,-288.5 2216,-288.5 "/>
<text text-anchor="middle" x="2122" y="-273.3" font-family="Times,serif" font-size="14.00" fill="#000000">study_phs_id</text>
<polyline fill="none" stroke="#000000" points="2028,-265.5 2216,-265.5 "/>
<text text-anchor="middle" x="2122" y="-250.3" font-family="Times,serif" font-size="14.00" fill="#000000">study_short_name</text>
<polyline fill="none" stroke="#000000" points="2028,-242.5 2216,-242.5 "/>
<text text-anchor="middle" x="2122" y="-227.3" font-family="Times,serif" font-size="14.00" fill="#000000">study_status</text>
<polyline fill="none" stroke="#000000" points="2028,-219.5 2216,-219.5 "/>
<text text-anchor="middle" x="2122" y="-204.3" font-family="Times,serif" font-size="14.00" fill="#000000">study_type</text>
<polyline fill="none" stroke="#000000" points="2216,-196.5 2216,-495.5 "/>
<text text-anchor="middle" x="2226.5" y="-342.3" font-family="Times,serif" font-size="14.00" fill="#000000"> </text>
</g>
<!-- study_personnel&#45;&gt;study -->
<g id="edge5" class="edge">
<title>study_personnel&#45;&gt;study</title>
<path fill="none" stroke="#000000" d="M268.8625,-593.3901C297.1438,-575.4889 329.1945,-558.136 361,-547 651.5628,-445.2653 1573.4262,-378.3587 1940.7696,-355.1175"/>
<polygon fill="#000000" stroke="#000000" points="1941.1825,-358.5985 1950.9424,-354.4761 1940.742,-351.6124 1941.1825,-358.5985"/>
<text text-anchor="middle" x="524.5" y="-517.8" font-family="Times,serif" font-size="14.00" fill="#000000">associated_with</text>
</g>
<!-- data_collection -->
<g id="node2" class="node">
<title>data_collection</title>
<path fill="none" stroke="#000000" d="M382.5,-639.5C382.5,-639.5 853.5,-639.5 853.5,-639.5 859.5,-639.5 865.5,-645.5 865.5,-651.5 865.5,-651.5 865.5,-673.5 865.5,-673.5 865.5,-679.5 859.5,-685.5 853.5,-685.5 853.5,-685.5 382.5,-685.5 382.5,-685.5 376.5,-685.5 370.5,-679.5 370.5,-673.5 370.5,-673.5 370.5,-651.5 370.5,-651.5 370.5,-645.5 376.5,-639.5 382.5,-639.5"/>
<text text-anchor="middle" x="433" y="-658.8" font-family="Times,serif" font-size="14.00" fill="#000000">data_collection</text>
<polyline fill="none" stroke="#000000" points="495.5,-639.5 495.5,-685.5 "/>
<text text-anchor="middle" x="506" y="-658.8" font-family="Times,serif" font-size="14.00" fill="#000000"> </text>
<polyline fill="none" stroke="#000000" points="516.5,-639.5 516.5,-685.5 "/>
<text text-anchor="middle" x="680.5" y="-670.3" font-family="Times,serif" font-size="14.00" fill="#000000">data_collection_category</text>
<polyline fill="none" stroke="#000000" points="516.5,-662.5 844.5,-662.5 "/>
<text text-anchor="middle" x="680.5" y="-647.3" font-family="Times,serif" font-size="14.00" fill="#000000">data_collection_category_annotation_count</text>
<polyline fill="none" stroke="#000000" points="844.5,-639.5 844.5,-685.5 "/>
<text text-anchor="middle" x="855" y="-658.8" font-family="Times,serif" font-size="14.00" fill="#000000"> </text>
</g>
<!-- data_collection&#45;&gt;study -->
<g id="edge6" class="edge">
<title>data_collection&#45;&gt;study</title>
<path fill="none" stroke="#000000" d="M660.3348,-639.3503C710.2265,-613.0543 796.3196,-570.7274 875,-547 1248.583,-434.3398 1706.7934,-380.2952 1940.6982,-358.4509"/>
<polygon fill="#000000" stroke="#000000" points="1941.346,-361.906 1950.9803,-357.498 1940.7,-354.9358 1941.346,-361.906"/>
<text text-anchor="middle" x="1029.5" y="-517.8" font-family="Times,serif" font-size="14.00" fill="#000000">associated_with</text>
</g>
<!-- publication -->
<g id="node3" class="node">
<title>publication</title>
<path fill="none" stroke="#000000" d="M896,-593.5C896,-593.5 1168,-593.5 1168,-593.5 1174,-593.5 1180,-599.5 1180,-605.5 1180,-605.5 1180,-719.5 1180,-719.5 1180,-725.5 1174,-731.5 1168,-731.5 1168,-731.5 896,-731.5 896,-731.5 890,-731.5 884,-725.5 884,-719.5 884,-719.5 884,-605.5 884,-605.5 884,-599.5 890,-593.5 896,-593.5"/>
<text text-anchor="middle" x="932.5" y="-658.8" font-family="Times,serif" font-size="14.00" fill="#000000">publication</text>
<polyline fill="none" stroke="#000000" points="981,-593.5 981,-731.5 "/>
<text text-anchor="middle" x="991.5" y="-658.8" font-family="Times,serif" font-size="14.00" fill="#000000"> </text>
<polyline fill="none" stroke="#000000" points="1002,-593.5 1002,-731.5 "/>
<text text-anchor="middle" x="1080.5" y="-716.3" font-family="Times,serif" font-size="14.00" fill="#000000">authorship</text>
<polyline fill="none" stroke="#000000" points="1002,-708.5 1159,-708.5 "/>
<text text-anchor="middle" x="1080.5" y="-693.3" font-family="Times,serif" font-size="14.00" fill="#000000">digital_object_id</text>
<polyline fill="none" stroke="#000000" points="1002,-685.5 1159,-685.5 "/>
<text text-anchor="middle" x="1080.5" y="-670.3" font-family="Times,serif" font-size="14.00" fill="#000000">journal_citation</text>
<polyline fill="none" stroke="#000000" points="1002,-662.5 1159,-662.5 "/>
<text text-anchor="middle" x="1080.5" y="-647.3" font-family="Times,serif" font-size="14.00" fill="#000000">publication_title</text>
<polyline fill="none" stroke="#000000" points="1002,-639.5 1159,-639.5 "/>
<text text-anchor="middle" x="1080.5" y="-624.3" font-family="Times,serif" font-size="14.00" fill="#000000">pubmed_id</text>
<polyline fill="none" stroke="#000000" points="1002,-616.5 1159,-616.5 "/>
<text text-anchor="middle" x="1080.5" y="-601.3" font-family="Times,serif" font-size="14.00" fill="#000000">year_of_publication</text>
<polyline fill="none" stroke="#000000" points="1159,-593.5 1159,-731.5 "/>
<text text-anchor="middle" x="1169.5" y="-658.8" font-family="Times,serif" font-size="14.00" fill="#000000"> </text>
</g>
<!-- publication&#45;&gt;study -->
<g id="edge3" class="edge">
<title>publication&#45;&gt;study</title>
<path fill="none" stroke="#000000" d="M1112.6987,-593.2695C1136.0931,-576.0203 1162.5049,-559.0362 1189,-547 1438.1054,-433.836 1755.4461,-382.3316 1940.5519,-360.4978"/>
<polygon fill="#000000" stroke="#000000" points="1941.1061,-363.957 1950.6335,-359.3226 1940.2955,-357.0041 1941.1061,-363.957"/>
<text text-anchor="middle" x="1316.5" y="-517.8" font-family="Times,serif" font-size="14.00" fill="#000000">associated_with</text>
</g>
<!-- primary_diagnosis -->
<g id="node4" class="node">
<title>primary_diagnosis</title>
<path fill="none" stroke="#000000" d="M1210,-644.5C1210,-644.5 1628,-644.5 1628,-644.5 1634,-644.5 1640,-650.5 1640,-656.5 1640,-656.5 1640,-668.5 1640,-668.5 1640,-674.5 1634,-680.5 1628,-680.5 1628,-680.5 1210,-680.5 1210,-680.5 1204,-680.5 1198,-674.5 1198,-668.5 1198,-668.5 1198,-656.5 1198,-656.5 1198,-650.5 1204,-644.5 1210,-644.5"/>
<text text-anchor="middle" x="1272.5" y="-658.8" font-family="Times,serif" font-size="14.00" fill="#000000">primary_diagnosis</text>
<polyline fill="none" stroke="#000000" points="1347,-644.5 1347,-680.5 "/>
<text text-anchor="middle" x="1357.5" y="-658.8" font-family="Times,serif" font-size="14.00" fill="#000000"> </text>
<polyline fill="none" stroke="#000000" points="1368,-644.5 1368,-680.5 "/>
<text text-anchor="middle" x="1493.5" y="-658.8" font-family="Times,serif" font-size="14.00" fill="#000000">primary_diagnosis_disease_term</text>
<polyline fill="none" stroke="#000000" points="1619,-644.5 1619,-680.5 "/>
<text text-anchor="middle" x="1629.5" y="-658.8" font-family="Times,serif" font-size="14.00" fill="#000000"> </text>
</g>
<!-- primary_diagnosis&#45;&gt;study -->
<g id="edge4" class="edge">
<title>primary_diagnosis&#45;&gt;study</title>
<path fill="none" stroke="#000000" d="M1453.849,-644.4388C1498.7165,-621.315 1579.2214,-580.2622 1649,-547 1745.6286,-500.9389 1855.2015,-451.4138 1941.4389,-413.0489"/>
<polygon fill="#000000" stroke="#000000" points="1943.0549,-416.1608 1950.7709,-408.9003 1940.2114,-409.7644 1943.0549,-416.1608"/>
<text text-anchor="middle" x="1767.5" y="-517.8" font-family="Times,serif" font-size="14.00" fill="#000000">associated_with</text>
</g>
<!-- study_demographic -->
<g id="node5" class="node">
<title>study_demographic</title>
<path fill="none" stroke="#000000" d="M1670,-559C1670,-559 2100,-559 2100,-559 2106,-559 2112,-565 2112,-571 2112,-571 2112,-754 2112,-754 2112,-760 2106,-766 2100,-766 2100,-766 1670,-766 1670,-766 1664,-766 1658,-760 1658,-754 1658,-754 1658,-571 1658,-571 1658,-565 1664,-559 1670,-559"/>
<text text-anchor="middle" x="1737" y="-658.8" font-family="Times,serif" font-size="14.00" fill="#000000">study_demographic</text>
<polyline fill="none" stroke="#000000" points="1816,-559 1816,-766 "/>
<text text-anchor="middle" x="1826.5" y="-658.8" font-family="Times,serif" font-size="14.00" fill="#000000"> </text>
<polyline fill="none" stroke="#000000" points="1837,-559 1837,-766 "/>
<text text-anchor="middle" x="1964" y="-750.8" font-family="Times,serif" font-size="14.00" fill="#000000">ethnicity</text>
<polyline fill="none" stroke="#000000" points="1837,-743 2091,-743 "/>
<text text-anchor="middle" x="1964" y="-727.8" font-family="Times,serif" font-size="14.00" fill="#000000">gender</text>
<polyline fill="none" stroke="#000000" points="1837,-720 2091,-720 "/>
<text text-anchor="middle" x="1964" y="-704.8" font-family="Times,serif" font-size="14.00" fill="#000000">ncbi_taxonomy_id</text>
<polyline fill="none" stroke="#000000" points="1837,-697 2091,-697 "/>
<text text-anchor="middle" x="1964" y="-681.8" font-family="Times,serif" font-size="14.00" fill="#000000">ncbi_taxonomy_name</text>
<polyline fill="none" stroke="#000000" points="1837,-674 2091,-674 "/>
<text text-anchor="middle" x="1964" y="-658.8" font-family="Times,serif" font-size="14.00" fill="#000000">race</text>
<polyline fill="none" stroke="#000000" points="1837,-651 2091,-651 "/>
<text text-anchor="middle" x="1964" y="-635.8" font-family="Times,serif" font-size="14.00" fill="#000000">sex</text>
<polyline fill="none" stroke="#000000" points="1837,-628 2091,-628 "/>
<text text-anchor="middle" x="1964" y="-612.8" font-family="Times,serif" font-size="14.00" fill="#000000">study_participant_maximum_age</text>
<polyline fill="none" stroke="#000000" points="1837,-605 2091,-605 "/>
<text text-anchor="middle" x="1964" y="-589.8" font-family="Times,serif" font-size="14.00" fill="#000000">study_participant_median_age</text>
<polyline fill="none" stroke="#000000" points="1837,-582 2091,-582 "/>
<text text-anchor="middle" x="1964" y="-566.8" font-family="Times,serif" font-size="14.00" fill="#000000">study_participant_minimum_age</text>
<polyline fill="none" stroke="#000000" points="2091,-559 2091,-766 "/>
<text text-anchor="middle" x="2101.5" y="-658.8" font-family="Times,serif" font-size="14.00" fill="#000000"> </text>
</g>
<!-- study_demographic&#45;&gt;study -->
<g id="edge1" class="edge">
<title>study_demographic&#45;&gt;study</title>
<path fill="none" stroke="#000000" d="M1953.4344,-558.8661C1965.0487,-541.2779 1977.3404,-522.6639 1989.6298,-504.0535"/>
<polygon fill="#000000" stroke="#000000" points="1992.6838,-505.7801 1995.2736,-495.5067 1986.8425,-501.9228 1992.6838,-505.7801"/>
<text text-anchor="middle" x="2034.5" y="-517.8" font-family="Times,serif" font-size="14.00" fill="#000000">associated_with</text>
</g>
<!-- data_file -->
<g id="node6" class="node">
<title>data_file</title>
<path fill="none" stroke="#000000" d="M2142,-547.5C2142,-547.5 2466,-547.5 2466,-547.5 2472,-547.5 2478,-553.5 2478,-559.5 2478,-559.5 2478,-765.5 2478,-765.5 2478,-771.5 2472,-777.5 2466,-777.5 2466,-777.5 2142,-777.5 2142,-777.5 2136,-777.5 2130,-771.5 2130,-765.5 2130,-765.5 2130,-559.5 2130,-559.5 2130,-553.5 2136,-547.5 2142,-547.5"/>
<text text-anchor="middle" x="2169" y="-658.8" font-family="Times,serif" font-size="14.00" fill="#000000">data_file</text>
<polyline fill="none" stroke="#000000" points="2208,-547.5 2208,-777.5 "/>
<text text-anchor="middle" x="2218.5" y="-658.8" font-family="Times,serif" font-size="14.00" fill="#000000"> </text>
<polyline fill="none" stroke="#000000" points="2229,-547.5 2229,-777.5 "/>
<text text-anchor="middle" x="2343" y="-762.3" font-family="Times,serif" font-size="14.00" fill="#000000">data_file_checksum_type</text>
<polyline fill="none" stroke="#000000" points="2229,-754.5 2457,-754.5 "/>
<text text-anchor="middle" x="2343" y="-739.3" font-family="Times,serif" font-size="14.00" fill="#000000">data_file_checksum_value</text>
<polyline fill="none" stroke="#000000" points="2229,-731.5 2457,-731.5 "/>
<text text-anchor="middle" x="2343" y="-716.3" font-family="Times,serif" font-size="14.00" fill="#000000">data_file_compression_status</text>
<polyline fill="none" stroke="#000000" points="2229,-708.5 2457,-708.5 "/>
<text text-anchor="middle" x="2343" y="-693.3" font-family="Times,serif" font-size="14.00" fill="#000000">data_file_description</text>
<polyline fill="none" stroke="#000000" points="2229,-685.5 2457,-685.5 "/>
<text text-anchor="middle" x="2343" y="-670.3" font-family="Times,serif" font-size="14.00" fill="#000000">data_file_format</text>
<polyline fill="none" stroke="#000000" points="2229,-662.5 2457,-662.5 "/>
<text text-anchor="middle" x="2343" y="-647.3" font-family="Times,serif" font-size="14.00" fill="#000000">data_file_location</text>
<polyline fill="none" stroke="#000000" points="2229,-639.5 2457,-639.5 "/>
<text text-anchor="middle" x="2343" y="-624.3" font-family="Times,serif" font-size="14.00" fill="#000000">data_file_name</text>
<polyline fill="none" stroke="#000000" points="2229,-616.5 2457,-616.5 "/>
<text text-anchor="middle" x="2343" y="-601.3" font-family="Times,serif" font-size="14.00" fill="#000000">data_file_size</text>
<polyline fill="none" stroke="#000000" points="2229,-593.5 2457,-593.5 "/>
<text text-anchor="middle" x="2343" y="-578.3" font-family="Times,serif" font-size="14.00" fill="#000000">data_file_type</text>
<polyline fill="none" stroke="#000000" points="2229,-570.5 2457,-570.5 "/>
<text text-anchor="middle" x="2343" y="-555.3" font-family="Times,serif" font-size="14.00" fill="#000000">data_file_uuid</text>
<polyline fill="none" stroke="#000000" points="2457,-547.5 2457,-777.5 "/>
<text text-anchor="middle" x="2467.5" y="-658.8" font-family="Times,serif" font-size="14.00" fill="#000000"> </text>
</g>
<!-- data_file&#45;&gt;study -->
<g id="edge2" class="edge">
<title>data_file&#45;&gt;study</title>
<path fill="none" stroke="#000000" d="M2227.5911,-547.3409C2218.2779,-533.3046 2208.6399,-518.7787 2199.0018,-504.2528"/>
<polygon fill="#000000" stroke="#000000" points="2201.7748,-502.1014 2193.3296,-495.7038 2195.9419,-505.9716 2201.7748,-502.1014"/>
<text text-anchor="middle" x="2269.5" y="-517.8" font-family="Times,serif" font-size="14.00" fill="#000000">associated_with</text>
</g>
<!-- program -->
<g id="node7" class="node">
<title>program</title>
<path fill="none" stroke="#000000" d="M1961,-.5C1961,-.5 2227,-.5 2227,-.5 2233,-.5 2239,-6.5 2239,-12.5 2239,-12.5 2239,-34.5 2239,-34.5 2239,-40.5 2233,-46.5 2227,-46.5 2227,-46.5 1961,-46.5 1961,-46.5 1955,-46.5 1949,-40.5 1949,-34.5 1949,-34.5 1949,-12.5 1949,-12.5 1949,-6.5 1955,-.5 1961,-.5"/>
<text text-anchor="middle" x="1988" y="-19.8" font-family="Times,serif" font-size="14.00" fill="#000000">program</text>
<polyline fill="none" stroke="#000000" points="2027,-.5 2027,-46.5 "/>
<text text-anchor="middle" x="2037.5" y="-19.8" font-family="Times,serif" font-size="14.00" fill="#000000"> </text>
<polyline fill="none" stroke="#000000" points="2048,-.5 2048,-46.5 "/>
<text text-anchor="middle" x="2133" y="-31.3" font-family="Times,serif" font-size="14.00" fill="#000000">program_name</text>
<polyline fill="none" stroke="#000000" points="2048,-23.5 2218,-23.5 "/>
<text text-anchor="middle" x="2133" y="-8.3" font-family="Times,serif" font-size="14.00" fill="#000000">program_short_name</text>
<polyline fill="none" stroke="#000000" points="2218,-.5 2218,-46.5 "/>
<text text-anchor="middle" x="2228.5" y="-19.8" font-family="Times,serif" font-size="14.00" fill="#000000"> </text>
</g>
<!-- study&#45;&gt;program -->
<g id="edge12" class="edge">
<title>study&#45;&gt;program</title>
<path fill="none" stroke="#000000" d="M2086.1535,-196.4636C2085.4628,-163.993 2085.5075,-129.8388 2087,-98 2087.6321,-84.5163 2088.9042,-69.705 2090.1928,-56.8651"/>
<polygon fill="#000000" stroke="#000000" points="2093.7055,-56.9257 2091.2653,-46.6157 2086.7435,-56.1971 2093.7055,-56.9257"/>
<text text-anchor="middle" x="2126" y="-117.8" font-family="Times,serif" font-size="14.00" fill="#000000">belongs_to</text>
</g>
<!-- project -->
<g id="node11" class="node">
<title>project</title>
<path fill="none" stroke="#000000" d="M2186.5,-98.5C2186.5,-98.5 2431.5,-98.5 2431.5,-98.5 2437.5,-98.5 2443.5,-104.5 2443.5,-110.5 2443.5,-110.5 2443.5,-132.5 2443.5,-132.5 2443.5,-138.5 2437.5,-144.5 2431.5,-144.5 2431.5,-144.5 2186.5,-144.5 2186.5,-144.5 2180.5,-144.5 2174.5,-138.5 2174.5,-132.5 2174.5,-132.5 2174.5,-110.5 2174.5,-110.5 2174.5,-104.5 2180.5,-98.5 2186.5,-98.5"/>
<text text-anchor="middle" x="2208.5" y="-117.8" font-family="Times,serif" font-size="14.00" fill="#000000">project</text>
<polyline fill="none" stroke="#000000" points="2242.5,-98.5 2242.5,-144.5 "/>
<text text-anchor="middle" x="2253" y="-117.8" font-family="Times,serif" font-size="14.00" fill="#000000"> </text>
<polyline fill="none" stroke="#000000" points="2263.5,-98.5 2263.5,-144.5 "/>
<text text-anchor="middle" x="2343" y="-129.3" font-family="Times,serif" font-size="14.00" fill="#000000">project_name</text>
<polyline fill="none" stroke="#000000" points="2263.5,-121.5 2422.5,-121.5 "/>
<text text-anchor="middle" x="2343" y="-106.3" font-family="Times,serif" font-size="14.00" fill="#000000">project_short_name</text>
<polyline fill="none" stroke="#000000" points="2422.5,-98.5 2422.5,-144.5 "/>
<text text-anchor="middle" x="2433" y="-117.8" font-family="Times,serif" font-size="14.00" fill="#000000"> </text>
</g>
<!-- study&#45;&gt;project -->
<g id="edge11" class="edge">
<title>study&#45;&gt;project</title>
<path fill="none" stroke="#000000" d="M2237.1092,-196.5674C2253.1115,-179.858 2267.927,-164.3878 2279.8991,-151.8868"/>
<polygon fill="#000000" stroke="#000000" points="2282.5823,-154.1453 2286.9711,-144.5023 2277.5267,-149.3037 2282.5823,-154.1453"/>
<text text-anchor="middle" x="2307" y="-166.8" font-family="Times,serif" font-size="14.00" fill="#000000">belongs_to</text>
</g>
<!-- associated_link -->
<g id="node9" class="node">
<title>associated_link</title>
<path fill="none" stroke="#000000" d="M2508,-628C2508,-628 2826,-628 2826,-628 2832,-628 2838,-634 2838,-640 2838,-640 2838,-685 2838,-685 2838,-691 2832,-697 2826,-697 2826,-697 2508,-697 2508,-697 2502,-697 2496,-691 2496,-685 2496,-685 2496,-640 2496,-640 2496,-634 2502,-628 2508,-628"/>
<text text-anchor="middle" x="2559.5" y="-658.8" font-family="Times,serif" font-size="14.00" fill="#000000">associated_link</text>
<polyline fill="none" stroke="#000000" points="2623,-628 2623,-697 "/>
<text text-anchor="middle" x="2633.5" y="-658.8" font-family="Times,serif" font-size="14.00" fill="#000000"> </text>
<polyline fill="none" stroke="#000000" points="2644,-628 2644,-697 "/>
<text text-anchor="middle" x="2730.5" y="-681.8" font-family="Times,serif" font-size="14.00" fill="#000000">associated_link_id</text>
<polyline fill="none" stroke="#000000" points="2644,-674 2817,-674 "/>
<text text-anchor="middle" x="2730.5" y="-658.8" font-family="Times,serif" font-size="14.00" fill="#000000">associated_link_name</text>
<polyline fill="none" stroke="#000000" points="2644,-651 2817,-651 "/>
<text text-anchor="middle" x="2730.5" y="-635.8" font-family="Times,serif" font-size="14.00" fill="#000000">associated_link_url</text>
<polyline fill="none" stroke="#000000" points="2817,-628 2817,-697 "/>
<text text-anchor="middle" x="2827.5" y="-658.8" font-family="Times,serif" font-size="14.00" fill="#000000"> </text>
</g>
<!-- associated_link&#45;&gt;study -->
<g id="edge9" class="edge">
<title>associated_link&#45;&gt;study</title>
<path fill="none" stroke="#000000" d="M2615.8416,-627.7779C2580.2603,-604.1006 2531.4252,-572.5324 2487,-547 2409.1047,-502.2313 2320.1339,-456.3127 2246.568,-419.6863"/>
<polygon fill="#000000" stroke="#000000" points="2247.7282,-416.3545 2237.2154,-415.0386 2244.613,-422.6232 2247.7282,-416.3545"/>
<text text-anchor="middle" x="2503.5" y="-517.8" font-family="Times,serif" font-size="14.00" fill="#000000">associated_with</text>
</g>
<!-- study_country -->
<g id="node10" class="node">
<title>study_country</title>
<path fill="none" stroke="#000000" d="M2868,-644.5C2868,-644.5 3124,-644.5 3124,-644.5 3130,-644.5 3136,-650.5 3136,-656.5 3136,-656.5 3136,-668.5 3136,-668.5 3136,-674.5 3130,-680.5 3124,-680.5 3124,-680.5 2868,-680.5 2868,-680.5 2862,-680.5 2856,-674.5 2856,-668.5 2856,-668.5 2856,-656.5 2856,-656.5 2856,-650.5 2862,-644.5 2868,-644.5"/>
<text text-anchor="middle" x="2915.5" y="-658.8" font-family="Times,serif" font-size="14.00" fill="#000000">study_country</text>
<polyline fill="none" stroke="#000000" points="2975,-644.5 2975,-680.5 "/>
<text text-anchor="middle" x="2985.5" y="-658.8" font-family="Times,serif" font-size="14.00" fill="#000000"> </text>
<polyline fill="none" stroke="#000000" points="2996,-644.5 2996,-680.5 "/>
<text text-anchor="middle" x="3055.5" y="-658.8" font-family="Times,serif" font-size="14.00" fill="#000000">study_country</text>
<polyline fill="none" stroke="#000000" points="3115,-644.5 3115,-680.5 "/>
<text text-anchor="middle" x="3125.5" y="-658.8" font-family="Times,serif" font-size="14.00" fill="#000000"> </text>
</g>
<!-- study_country&#45;&gt;study -->
<g id="edge10" class="edge">
<title>study_country&#45;&gt;study</title>
<path fill="none" stroke="#000000" d="M2977.9163,-644.4993C2951.425,-619.1192 2899.4931,-573.0163 2847,-547 2651.7069,-450.21 2404.0353,-395.6431 2247.2312,-368.4861"/>
<polygon fill="#000000" stroke="#000000" points="2247.4836,-364.9784 2237.0357,-366.7368 2246.2998,-371.8775 2247.4836,-364.9784"/>
<text text-anchor="middle" x="2846.5" y="-517.8" font-family="Times,serif" font-size="14.00" fill="#000000">associated_with</text>
</g>
<!-- project&#45;&gt;program -->
<g id="edge13" class="edge">
<title>project&#45;&gt;program</title>
<path fill="none" stroke="#000000" d="M2258.3203,-98.3995C2227.1341,-84.1844 2186.9947,-65.8883 2154.1947,-50.9376"/>
<polygon fill="#000000" stroke="#000000" points="2155.2626,-47.578 2144.7116,-46.6151 2152.3593,-53.9475 2155.2626,-47.578"/>
<text text-anchor="middle" x="2254" y="-68.8" font-family="Times,serif" font-size="14.00" fill="#000000">belongs_to</text>
</g>
<!-- study_state_province_territory -->
<g id="node12" class="node">
<title>study_state_province_territory</title>
<path fill="none" stroke="#000000" d="M3166,-644.5C3166,-644.5 3662,-644.5 3662,-644.5 3668,-644.5 3674,-650.5 3674,-656.5 3674,-656.5 3674,-668.5 3674,-668.5 3674,-674.5 3668,-680.5 3662,-680.5 3662,-680.5 3166,-680.5 3166,-680.5 3160,-680.5 3154,-674.5 3154,-668.5 3154,-668.5 3154,-656.5 3154,-656.5 3154,-650.5 3160,-644.5 3166,-644.5"/>
<text text-anchor="middle" x="3273.5" y="-658.8" font-family="Times,serif" font-size="14.00" fill="#000000">study_state_province_territory</text>
<polyline fill="none" stroke="#000000" points="3393,-644.5 3393,-680.5 "/>
<text text-anchor="middle" x="3403.5" y="-658.8" font-family="Times,serif" font-size="14.00" fill="#000000"> </text>
<polyline fill="none" stroke="#000000" points="3414,-644.5 3414,-680.5 "/>
<text text-anchor="middle" x="3533.5" y="-658.8" font-family="Times,serif" font-size="14.00" fill="#000000">study_state_province_territory</text>
<polyline fill="none" stroke="#000000" points="3653,-644.5 3653,-680.5 "/>
<text text-anchor="middle" x="3663.5" y="-658.8" font-family="Times,serif" font-size="14.00" fill="#000000"> </text>
</g>
<!-- study_state_province_territory&#45;&gt;study -->
<g id="edge8" class="edge">
<title>study_state_province_territory&#45;&gt;study</title>
<path fill="none" stroke="#000000" d="M3378.8161,-644.4591C3328.3021,-619.2427 3231.7424,-573.5728 3145,-547 2832.8308,-451.3696 2453.9434,-392.3111 2247.0678,-364.6808"/>
<polygon fill="#000000" stroke="#000000" points="2247.4171,-361.1965 2237.0431,-363.3485 2246.4949,-368.1355 2247.4171,-361.1965"/>
<text text-anchor="middle" x="3118.5" y="-517.8" font-family="Times,serif" font-size="14.00" fill="#000000">associated_with</text>
</g>
<!-- comorbidity -->
<g id="node13" class="node">
<title>comorbidity</title>
<path fill="none" stroke="#000000" d="M3704.5,-644.5C3704.5,-644.5 4031.5,-644.5 4031.5,-644.5 4037.5,-644.5 4043.5,-650.5 4043.5,-656.5 4043.5,-656.5 4043.5,-668.5 4043.5,-668.5 4043.5,-674.5 4037.5,-680.5 4031.5,-680.5 4031.5,-680.5 3704.5,-680.5 3704.5,-680.5 3698.5,-680.5 3692.5,-674.5 3692.5,-668.5 3692.5,-668.5 3692.5,-656.5 3692.5,-656.5 3692.5,-650.5 3698.5,-644.5 3704.5,-644.5"/>
<text text-anchor="middle" x="3744" y="-658.8" font-family="Times,serif" font-size="14.00" fill="#000000">comorbidity</text>
<polyline fill="none" stroke="#000000" points="3795.5,-644.5 3795.5,-680.5 "/>
<text text-anchor="middle" x="3806" y="-658.8" font-family="Times,serif" font-size="14.00" fill="#000000"> </text>
<polyline fill="none" stroke="#000000" points="3816.5,-644.5 3816.5,-680.5 "/>
<text text-anchor="middle" x="3919.5" y="-658.8" font-family="Times,serif" font-size="14.00" fill="#000000">comorbidity_disease_term</text>
<polyline fill="none" stroke="#000000" points="4022.5,-644.5 4022.5,-680.5 "/>
<text text-anchor="middle" x="4033" y="-658.8" font-family="Times,serif" font-size="14.00" fill="#000000"> </text>
</g>
<!-- comorbidity&#45;&gt;study -->
<g id="edge7" class="edge">
<title>comorbidity&#45;&gt;study</title>
<path fill="none" stroke="#000000" d="M3846.2928,-644.486C3813.3112,-618.2038 3747.5648,-569.9822 3683,-547 3420.0262,-453.3932 2592.1999,-382.983 2247.246,-356.959"/>
<polygon fill="#000000" stroke="#000000" points="2247.4165,-353.462 2237.1821,-356.202 2246.8914,-360.4423 2247.4165,-353.462"/>
<text text-anchor="middle" x="3670.5" y="-517.8" font-family="Times,serif" font-size="14.00" fill="#000000">associated_with</text>
</g>
</g>
</svg>
